<svg xmlns="http://www.w3.org/2000/svg" viewBox="0 0 64 64" role="img" aria-label="J">
  <defs>
    <linearGradient id="sky" x1="0" y1="0" x2="0" y2="1">
      <stop offset="0%" stop-color="#60a5fa"/>
      <stop offset="100%" stop-color="#f0f9ff"/>
    </linearGradient>
    <linearGradient id="sun" x1="0" y1="0" x2="1" y2="1">
      <stop offset="0%" stop-color="#fde047"/>
      <stop offset="100%" stop-color="#f59e0b"/>
    </linearGradient>
  </defs>
  <rect width="64" height="64" rx="14" fill="url(#sky)"/>
  <circle cx="48" cy="18" r="10" fill="url(#sun)"/>
  <path d="M8 40c6-6 14-6 20 0 6-6 14-6 20 0v8H8z" fill="#dbeafe"/>
  <path d="M4 46c7-7 17-7 24 0 7-7 17-7 24 0v10H4z" fill="#93c5fd"/>
  <path d="M36 16h-8v26c0 4.6-2.4 7.4-6.6 7.4-2.2 0-4.2-.6-5.8-1.6l-3 6.8c2.6 1.6 5.8 2.6 9.4 2.6 9 0 14-5.4 14-15.2V16z" fill="#0f172a"/>
</svg>
